<?xml version="1.0" encoding="UTF-8"?> <svg xmlns="http://www.w3.org/2000/svg" xmlns:xlink="http://www.w3.org/1999/xlink" viewBox="0 0 147.64 118.03"><defs><style>.cls-1{fill:url(#Dégradé_sans_nom_27);}.cls-2{fill:url(#Dégradé_sans_nom_27-2);}.cls-3{fill:url(#Dégradé_sans_nom_27-3);}.cls-4{fill:url(#Dégradé_sans_nom_27-4);}.cls-5{fill:url(#Dégradé_sans_nom_27-5);}.cls-6{fill:url(#Dégradé_sans_nom_27-6);}</style><linearGradient id="Dégradé_sans_nom_27" x1="14.24" y1="43.95" x2="111.24" y2="45.95" gradientUnits="userSpaceOnUse"><stop offset="0.14" stop-color="#f2e10c"></stop><stop offset="0.24" stop-color="#f3d013"></stop><stop offset="0.45" stop-color="#f7a524"></stop><stop offset="0.58" stop-color="#fa8531"></stop><stop offset="0.71" stop-color="#f35d5e"></stop><stop offset="0.88" stop-color="#ea249e"></stop><stop offset="0.95" stop-color="#d028b1"></stop><stop offset="1" stop-color="#bf2bbe"></stop></linearGradient><linearGradient id="Dégradé_sans_nom_27-2" x1="14.23" y1="44.27" x2="111.23" y2="46.27" xlink:href="#Dégradé_sans_nom_27"></linearGradient><linearGradient id="Dégradé_sans_nom_27-3" x1="13.96" y1="57.75" x2="110.96" y2="59.75" xlink:href="#Dégradé_sans_nom_27"></linearGradient><linearGradient id="Dégradé_sans_nom_27-4" x1="14.26" y1="43.05" x2="111.26" y2="45.05" xlink:href="#Dégradé_sans_nom_27"></linearGradient><linearGradient id="Dégradé_sans_nom_27-5" x1="14.15" y1="48.31" x2="111.15" y2="50.31" xlink:href="#Dégradé_sans_nom_27"></linearGradient><linearGradient id="Dégradé_sans_nom_27-6" x1="14.21" y1="45.46" x2="111.21" y2="47.46" xlink:href="#Dégradé_sans_nom_27"></linearGradient></defs><title>Flavicon</title><g id="Calque_2" data-name="Calque 2"><g id="Calque_1-2" data-name="Calque 1"><path class="cls-1" d="M89.22,43.49c-.53,1.43-1.11,3.14-1.16,2.85C87.64,48,87.72,48.42,89.22,43.49Z"></path><path class="cls-2" d="M88.06,46.34c.07-.33.15-.68.24-1.09l-.26,1C88,46.35,88.05,46.3,88.06,46.34Z"></path><path class="cls-3" d="M43.68,59.31c0-1.45.14-2.75.28-4s.25-2.33.46-3.44.37-2.2.57-3.36.48-2.38.72-3.74c0,0,.29-.73.63-1.43L47,42a22.87,22.87,0,0,0,.7-4.07A10,10,0,0,1,48.06,35c.51-1.26,1.08-2.91,1.7-4.68s1.3-3.69,2-5.46c1.38-3.61,2.82-6.77,3.37-7.92.51-.7.33-.16,0,.66s-.73,2-.84,2.41c1.3-3.21,1.95-4.66,2.6-6.39.34-.85.74-1.71,1.3-2.81.29-.54.61-1.16,1-1.81.2-.33.41-.7.65-1.05l.72-1.06.15.07L61,6.56l.12-.21A2.33,2.33,0,0,1,61.39,6c.19-.24.47-.54.79-.49s.45.43.52.78a3.52,3.52,0,0,1,.09.58l0,.31,0,.74a8.68,8.68,0,0,1,0,.93l-.07,1c-.08.71-.13,1.41-.23,2.13-.18,1.43-.41,2.88-.68,4.35-.54,2.94-1.22,5.92-2,8.9A189.34,189.34,0,0,1,47.26,59.51a3.54,3.54,0,0,1,1-1.43A124.93,124.93,0,0,1,39,74.3,81.23,81.23,0,0,1,27.22,88.24a49.25,49.25,0,0,1-6.67,5.17l-1.72,1.06c-.58.33-1.19.6-1.77.91A30,30,0,0,1,13.53,97,37.58,37.58,0,0,1,0,99.94a34.9,34.9,0,0,0,9.81-.81l1.36-.28c.45-.12.9-.28,1.36-.42.91-.3,1.84-.58,2.77-.91a48.43,48.43,0,0,0,5.46-2.6,43.22,43.22,0,0,0,9.74-7.63c.73-.69,1.38-1.48,2-2.22s1.3-1.45,1.87-2.22c1.13-1.54,2.25-2.93,3.12-4.4A35.84,35.84,0,0,0,40,75.28c.82-1.2,1.64-2.44,2.4-3.62a39,39,0,0,1,3.46-5.23A117.91,117.91,0,0,0,55.63,45c.57-1.62,1.13-3.24,1.64-4.93s1.09-3.37,1.58-5.18c1-3.6,2.17-7.54,3.31-12.17.74-2.63.71-1.26,1.16-1.95,0,0-.78,3.72-1.76,7.41-.48,1.84-1,3.67-1.41,5l-.67,2.29L61,31.13c.71-2.21,1.37-4.43,1.37-4.43-.72,4-4,13.22-3.92,14.47,2-6.4,4.5-14.69,6.19-23A60.72,60.72,0,0,0,66,5.92,10.11,10.11,0,0,0,64.94.81,1.66,1.66,0,0,0,63.13.05a4.61,4.61,0,0,0-1.73,1A4.06,4.06,0,0,1,62.93.37a1.58,1.58,0,0,1,1.56.56,7.18,7.18,0,0,1,1.09,4,44.17,44.17,0,0,1-.77,9.48c-.63,2.77-1.74,7-2,6.65A97.07,97.07,0,0,0,64.56,8a21,21,0,0,0,0-2.42,7.89,7.89,0,0,0-.38-2.08c-.21-.63-.66-1.27-1.29-1.23a2.78,2.78,0,0,0-1.66.81,17.27,17.27,0,0,0-2.88,3.6c-1.1,1.67-2.13,3.46-3.12,5.32a110.45,110.45,0,0,0-5.44,12.08c-1.67,4.34-3.64,10.37-4.08,11,.8-3-.09-.84.55-3.31-.93,3.21-.67,3.48-.64,4.06a4.81,4.81,0,0,1-.17,1.55c-.2.87-.54,2.26-1.12,4.58l-.63-1.47a44.86,44.86,0,0,1-1.41,8.11A52.43,52.43,0,0,0,40.86,59c-.6,2.44-.51-2.14.31-7.41-1.05,6-.53,6.57-.88,11.34,0,0,0-.29-.09-.71s-.13-1-.17-1.58l-.19-2.31c.23,5.17-.73,9.18-.93,12.16.24.32.67-2.39,1,4,.16,2.73-.18,1.38-.23,2a12.33,12.33,0,0,1,.64,1.86q.22.81.48,2c.25.73.42,1.62.76,2.55,0,.4-.35-.15-.64-.9a8.3,8.3,0,0,0-.77-1.72,31.2,31.2,0,0,0,2.59,7.44c1.54,2.15,1.66,1.88,1.5,1.56s-.4-.87.69.18c.57.79,1.12,1.24,1.47,1.68a7.19,7.19,0,0,1,.81.83c.31.4.2.5,0,.53-.48,0-1.54-.3-.52.92A15.83,15.83,0,0,1,43,90.19a21,21,0,0,1-2.75-4.5c-.38-.79-.62-1.61-.92-2.37s-.44-1.56-.64-2.26c-.29-1.4-.54-2.6-.73-3.49,0,0,.15.8.36,2A28.11,28.11,0,0,0,39.4,84a19.89,19.89,0,0,0,.89,2.25c.17.34.32.68.47,1l.49.85A8.78,8.78,0,0,0,42,89.32c.2.28.31.45.31.45-.17-.1,0,.33.35.93A19.85,19.85,0,0,0,44,92.59c.46.55.8,1,.7,1A6.46,6.46,0,0,1,42.85,92a15.41,15.41,0,0,0,3.67,3.35,12.77,12.77,0,0,0,4.65,1.94,11.14,11.14,0,0,0,5.22-.13,6.92,6.92,0,0,0,1.31-.43,6.89,6.89,0,0,0,1.22-.55l2.23-1.26a36.32,36.32,0,0,0,7.49-6.86c1-1.29,2-2.61,3-3.92s1.79-2.63,2.51-4c-.94,1.42-2.32,3.12-2.24,2.69,1.71-2.59,2.37-3.81,2.88-4.37s.7-.6,1.1-1.09c2-4.22,1.31-4.1,2.19-6.86a98.14,98.14,0,0,0,4.32-9c.53-1.16,1-2.3,1.54-3.59s1.23-2.77,2-4.63l-.68.24a31,31,0,0,0,2-5.92,59.87,59.87,0,0,1,1.83-6.34c.22-.29-.33,2-.75,3.93,1.4-5.36,1.88-4.72,3.1-10,0,0-.12,1.09-.26,2.17l-.28,2.17c1.2-4.11,2.44-10.47,2.44-8.12.55-3.83,1.53-9,1.93-14.67.1-1.41.15-2.84.12-4.42a19.51,19.51,0,0,0-.83-5.65c-.57-1.61-1.41-3-2.77-3.53A4.22,4.22,0,0,0,87.9,4l.29-.51a3.75,3.75,0,0,1,.31-.47,10.75,10.75,0,0,0-2.17,1.82,10.19,10.19,0,0,0-1.21,1.35L84.51,7a7.5,7.5,0,0,0-.57.76L83,9.21c-.27.45-.56.91-.85,1.38-.58.93-1.08,1.91-1.63,2.86a52.85,52.85,0,0,0-4.33,9.89l-.45.55s-.21.57-.51,1.42-.68,2-1.06,3.15c-.75,2.3-1.44,4.63-1.44,4.63-1.6,4-1.74,2.34-1.68,2.76-3.14,9.08-5,16.44-6.6,22.48.2.86-.23,3.78-.68,7.52-.16,1.88-.47,3.94-.61,6.07l-.21,3.18c0,.53-.08,1.06-.11,1.57s0,1,0,1.55c0,1.22-.09,2.45-.13,3.68s.06,2.45.09,3.69c0,.61,0,1.23.07,1.85L63,89.28c.15,1.23.18,2.48.44,3.69a40.69,40.69,0,0,0,4.47,14c.62,1,1.31,2,2,3l1.19,1.32a8.55,8.55,0,0,0,1.24,1.24A21,21,0,0,0,78,116.14a25.31,25.31,0,0,0,12.66,1.73c8.49-1,16.45-4.69,23.76-9A164.28,164.28,0,0,0,134.74,94c1.88-1.58,4-3.59,6.25-5.78s4.45-4.64,6.65-6.82c-5.73,4.8-6,5.7-11.69,10.34-1.09.83-2,1.5-2.87,2.07s-1.66,1-2.42,1.39c-1.54.83-3,1.6-5,2.77,0,0,.55-.2,1.09-.43l1.08-.45a32,32,0,0,1-3.14,2.49c-.74.51-1.24.81-1.69,1.08a32,32,0,0,0-3.92,2.87l-.19-1a19.28,19.28,0,0,1-3.77,2.56,28.38,28.38,0,0,1-4.07,1.86l-1.39,1.54c-4.1,1.61-6.77,2.55-8.15,2.32l.54.49a22.92,22.92,0,0,0-3,.92c-1.47.35-3.24.86-4.81,1.15a25.42,25.42,0,0,1-3.62.33c-.66-.12-.64-.23.54-.65a14.49,14.49,0,0,1-1.86.41c-.36.06-.77.11-1.25.15l-.77.06-.87-.1-.32-.7A17.48,17.48,0,0,1,81,112c-.71-.3-1.35-.57-1.86-.82a3.41,3.41,0,0,1-1-.78A4.78,4.78,0,0,0,80,111a5.18,5.18,0,0,0,1.11,0,26.56,26.56,0,0,1-5.85-3.18c-1-.63-1.29-.74-1.67-.73a1.85,1.85,0,0,1-.59-.07,2.11,2.11,0,0,1-.41-.17,5.55,5.55,0,0,1-.48-.44,12.77,12.77,0,0,1-1.48-1.83,24,24,0,0,1-1.94-4.1h.39s-.44-.87-.86-1.78-.71-1.9-.71-1.9l-.1-.68a12.88,12.88,0,0,1-.19-1.51l-.16-2.22c-1.1-2.73-1.74-8.72-1.24-15.28s1.78-13.54,2.54-18.73c.84-4,2.74-9.11,5.18-16.48l-.68.26c.63-1.44,1.54-3.91,2.84-6.78.62-1.45,1.3-3,2-4.63s1.5-3.28,2.31-4.9A91.65,91.65,0,0,1,84.92,17a33.71,33.71,0,0,1,2.24-3.11A5.9,5.9,0,0,1,88,13c.24-.22.49-.45.51-.32.16-.9-.06-.14-.44-.4.27-.62.68-1.17,1.08-1.16s.44.63.41.93a1.92,1.92,0,0,1-.26.79c0-.08-.13.57-.18,1S89,15,88.91,15.62c-.13,3.29,0,2.05.24.41s.26-3.36.46-1.86c-.18,2.47-.44,4.31-.58,5.78s-.26,2.64-.39,3.87a57.52,57.52,0,0,1-2.49,11.7c-.64,1.18.71-3.41.79-4.79a145.7,145.7,0,0,1-4.87,18.18,168.6,168.6,0,0,1-8.16,20.31,78.87,78.87,0,0,1-6.53,10.59c-2.58,3.43-5.62,6.71-9,8.7l-1.29.66-.64.34-.52.17a5.45,5.45,0,0,1-1.06.25,8.18,8.18,0,0,1-1.11,0,8,8,0,0,1-4.33-1.64c-2.67-2-4.37-5.51-5-9.15l-.25-.24a97.61,97.61,0,0,1-.66-11.24c0-2,.08-4.08.19-6.19s.38-4.28.77-6.48L44,57.17Z"></path><path class="cls-4" d="M56.87,43l-1.43,4.35,1.31-3.45c.33-.86.65-1.73.87-2.39L58,40.46l-.56,1.29C57.18,42.4,56.87,43,56.87,43Z"></path><path class="cls-5" d="M39.24,57.79l.19-1.14s.12-1,.29-2.63.49-3.67.79-5.77.74-4.17,1.05-5.73l.57-2.59-.63,2.76c-.31,1.67-.78,3.88-1.12,6.12-.18,1.12-.35,2.24-.51,3.29s-.24,2-.34,2.88-.17,1.54-.23,2S39.24,57.79,39.24,57.79Z"></path><path class="cls-6" d="M89.49,44.26c-.29,2-1.25,4.57-1.71,6.56L88.87,47l1-3.83Z"></path></g></g></svg> 