<?xml version="1.0" encoding="UTF-8"?> <svg xmlns="http://www.w3.org/2000/svg" xmlns:xlink="http://www.w3.org/1999/xlink" viewBox="0 0 318.72 141.44"><defs><style>.cls-1{fill:#4f4e4e;}.cls-2{fill:url(#Dégradé_sans_nom_27);}.cls-3{fill:url(#Dégradé_sans_nom_27-2);}.cls-4{fill:url(#Dégradé_sans_nom_27-3);}.cls-5{fill:url(#Dégradé_sans_nom_27-4);}.cls-6{fill:url(#Dégradé_sans_nom_27-5);}.cls-7{fill:url(#Dégradé_sans_nom_27-6);}</style><linearGradient id="Dégradé_sans_nom_27" x1="90.36" y1="52.67" x2="206.6" y2="55.06" gradientUnits="userSpaceOnUse"><stop offset="0.14" stop-color="#f2e10c"></stop><stop offset="0.24" stop-color="#f3d013"></stop><stop offset="0.45" stop-color="#f7a524"></stop><stop offset="0.58" stop-color="#fa8531"></stop><stop offset="0.71" stop-color="#f35d5e"></stop><stop offset="0.88" stop-color="#ea249e"></stop><stop offset="0.95" stop-color="#d028b1"></stop><stop offset="1" stop-color="#bf2bbe"></stop></linearGradient><linearGradient id="Dégradé_sans_nom_27-2" x1="90.35" y1="53.05" x2="206.59" y2="55.45" xlink:href="#Dégradé_sans_nom_27"></linearGradient><linearGradient id="Dégradé_sans_nom_27-3" x1="90.02" y1="69.2" x2="206.26" y2="71.6" xlink:href="#Dégradé_sans_nom_27"></linearGradient><linearGradient id="Dégradé_sans_nom_27-4" x1="90.38" y1="51.59" x2="206.62" y2="53.98" xlink:href="#Dégradé_sans_nom_27"></linearGradient><linearGradient id="Dégradé_sans_nom_27-5" x1="90.25" y1="57.89" x2="206.49" y2="60.29" xlink:href="#Dégradé_sans_nom_27"></linearGradient><linearGradient id="Dégradé_sans_nom_27-6" x1="90.32" y1="54.48" x2="206.56" y2="56.88" xlink:href="#Dégradé_sans_nom_27"></linearGradient></defs><title>stelliant groupe-</title><g id="Calque_2" data-name="Calque 2"><g id="Calque_1-2" data-name="Calque 1"><rect class="cls-1" x="197.71" y="52.68" width="5.41" height="6.21"></rect><rect class="cls-1" x="197.71" y="61.55" width="5.41" height="26.74"></rect><path class="cls-1" d="M238.65,64.54a11.42,11.42,0,0,0-8.23-3.63c-7.51,0-13.39,6.17-13.39,14s5.88,14,13.39,14a11.37,11.37,0,0,0,8.23-3.65v3h5.26V61.55h-5.26ZM238.5,75c0,4.72-3.7,8.72-8.08,8.72s-8-3.91-8-8.72,3.58-8.87,8-8.87S238.5,70.19,238.5,75Z"></path><path class="cls-1" d="M271.28,61.23a10.08,10.08,0,0,0-6.84,2.53V61.88h-5.26V88.61h5.41V72.39a5.9,5.9,0,0,1,6.1-6.09c3.48,0,5.65,2.37,5.65,6.19V88.61h5.36v-16C281.7,65.71,277.61,61.23,271.28,61.23Z"></path><path class="cls-1" d="M313.36,74.6v2.93a6,6,0,1,1-12,0V66.77h17.25V61.55H301.32V56.1H296V77.53a11.39,11.39,0,0,0,22.77,0V74.6Z"></path><path class="cls-1" d="M12.33,71.63c-5-.8-5.94-1.4-5.94-2.68,0-1.67,2.28-3,5.2-3s5.06,1.32,5.56,3.64l.11.47h5.41l-.07-.66c-.57-5.26-4.79-8.52-11-8.52C4.3,60.91,1,65.15,1,69.09,1,74.32,5,76,11.46,76.88s6.42,2.2,6.42,3.37c0,1.77-2,3.57-5.79,3.57-3.5,0-6.07-1.7-6.55-4.32L5.45,79H0l.09.67c.72,5.62,5.43,9.25,12,9.25S23.15,85.35,23.15,80C23.15,73.34,17.15,72.39,12.33,71.63Z"></path><path class="cls-1" d="M55.25,77.53a6,6,0,1,1-12,0V66.77H60.46V61.55H43.2V56.1H37.84V77.53A11,11,0,0,0,49.25,88.88,11,11,0,0,0,60.61,77.53V74.6H55.25Z"></path><path class="cls-1" d="M89.31,60.91c-7.41,0-13.44,6.3-13.44,14A13.66,13.66,0,0,0,89.56,88.88c6.16,0,10.76-3.26,12.62-8.94l.25-.78H96.76l-.16.34a7.27,7.27,0,0,1-7,4.37,8.33,8.33,0,0,1-8.14-7.23H102.8V76A15.54,15.54,0,0,0,98.52,64.8,12.91,12.91,0,0,0,89.31,60.91Zm0,5a8,8,0,0,1,7.43,5.74h-15A8.25,8.25,0,0,1,89.31,65.93Z"></path><path class="cls-2" d="M180.21,52.12c-.64,1.71-1.32,3.76-1.39,3.41C178.32,57.52,178.41,58,180.21,52.12Z"></path><path class="cls-3" d="M178.82,55.53c.08-.39.18-.81.29-1.3-.11.4-.2.73-.32,1.19C178.78,55.54,178.81,55.48,178.82,55.53Z"></path><path class="cls-4" d="M125.63,71.07c0-1.74.17-3.29.34-4.73s.3-2.79.55-4.12.45-2.64.69-4,.57-2.85.86-4.48c0,0,.35-.87.75-1.72l.78-1.69c.72-3.51.87-4.3.84-4.88a12.11,12.11,0,0,1,.45-3.51c.61-1.52,1.29-3.49,2-5.62s1.56-4.41,2.44-6.54c1.65-4.32,3.38-8.1,4-9.48.62-.84.41-.2,0,.79s-.88,2.36-1,2.88c1.56-3.84,2.34-5.59,3.12-7.65.41-1,.88-2,1.56-3.37.34-.65.73-1.39,1.21-2.18.25-.39.5-.83.79-1.25L146,8.22l.18.08.27-.44.15-.25a3.1,3.1,0,0,1,.31-.46c.23-.28.57-.64.95-.58s.53.52.62.93a6.85,6.85,0,0,1,.11.7l0,.37,0,.89c0,.25,0,.7-.06,1.11l-.09,1.24c-.09.84-.15,1.68-.27,2.54q-.33,2.58-.82,5.22c-.64,3.52-1.45,7.09-2.37,10.66a225.64,225.64,0,0,1-15,41.08,4.42,4.42,0,0,1,1.25-1.71A149,149,0,0,1,120,89a97.42,97.42,0,0,1-14.09,16.7,58.86,58.86,0,0,1-8,6.19l-2.06,1.28c-.7.39-1.42.72-2.12,1.08a38,38,0,0,1-4.23,1.95,45.2,45.2,0,0,1-16.22,3.52,42,42,0,0,0,11.76-1l1.63-.34c.54-.14,1.08-.34,1.63-.51,1.09-.36,2.2-.7,3.31-1.09a55.85,55.85,0,0,0,6.56-3.11,51.8,51.8,0,0,0,11.66-9.15c.88-.83,1.66-1.77,2.44-2.65s1.56-1.75,2.25-2.66c1.35-1.85,2.7-3.52,3.74-5.28a43.14,43.14,0,0,0,3-3.8c1-1.44,2-2.93,2.87-4.33a46.2,46.2,0,0,1,4.15-6.28A140.68,140.68,0,0,0,140,53.94c.69-1.95,1.36-3.89,2-5.91s1.31-4,1.9-6.21c1.26-4.32,2.6-9,4-14.58.88-3.15.84-1.51,1.38-2.34,0,0-.93,4.46-2.11,8.88-.57,2.2-1.19,4.4-1.69,6l-.8,2.74,1.79-5.25C147.22,34.66,148,32,148,32c-.86,4.8-4.77,15.84-4.69,17.34,2.34-7.66,5.38-17.59,7.41-27.58a72.33,72.33,0,0,0,1.68-14.66c-.06-2.3-.28-4.56-1.29-6.12a2,2,0,0,0-2.18-.91,5.36,5.36,0,0,0-2.06,1.25A4.86,4.86,0,0,1,148.7.44a1.93,1.93,0,0,1,1.88.67c1,1.2,1.17,3,1.3,4.75A52.16,52.16,0,0,1,151,17.21c-.76,3.33-2.09,8.41-2.35,8a116.14,116.14,0,0,0,2-15.6,27,27,0,0,0,0-2.91,8.92,8.92,0,0,0-.45-2.49c-.25-.75-.79-1.51-1.55-1.47a3.35,3.35,0,0,0-2,1A20.94,20.94,0,0,0,143.19,8c-1.31,2-2.54,4.15-3.73,6.38a131.81,131.81,0,0,0-6.53,14.48c-2,5.2-4.35,12.42-4.88,13.21.95-3.58-.11-1,.66-4-1.12,3.84-.8,4.17-.77,4.87a6.13,6.13,0,0,1-.2,1.85c-.24,1.05-.65,2.7-1.35,5.49l-.76-1.77c0,2.41-.81,5.83-1.68,9.73a63.08,63.08,0,0,0-1.69,12.43c-.72,2.93-.61-2.56.37-8.88-1.25,7.15-.63,7.88-1,13.59,0,0,0-.34-.11-.85s-.16-1.2-.21-1.89L121,69.91c.28,6.19-.86,11-1.11,14.58.29.37.81-2.88,1.21,4.74.19,3.28-.22,1.67-.28,2.47a12.85,12.85,0,0,1,.77,2.23c.18.65.38,1.44.58,2.36s.5,1.95.91,3.06c0,.48-.42-.18-.76-1.07a11,11,0,0,0-.93-2.07,37.53,37.53,0,0,0,3.1,8.92c1.85,2.58,2,2.25,1.8,1.87s-.48-1,.82.21c.69,1,1.35,1.49,1.77,2a9.08,9.08,0,0,1,1,1c.37.47.24.6,0,.62-.57.06-1.84-.35-.62,1.11a18.94,18.94,0,0,1-4.43-3.88,24.81,24.81,0,0,1-3.28-5.4c-.46-.94-.75-1.93-1.11-2.84l-.77-2.7c-.35-1.68-.65-3.12-.87-4.19,0,0,.17,1,.43,2.41a33.11,33.11,0,0,0,1.33,5.28,21.38,21.38,0,0,0,1.07,2.7c.19.42.38.82.56,1.2l.58,1a15.31,15.31,0,0,0,.92,1.48l.38.53c-.2-.12,0,.4.43,1.12a21.24,21.24,0,0,0,1.61,2.26c.55.66,1,1.17.83,1.19a7.76,7.76,0,0,1-2.25-1.89,18.49,18.49,0,0,0,4.4,4,15.43,15.43,0,0,0,5.57,2.33,13.3,13.3,0,0,0,6.26-.16,9,9,0,0,0,1.57-.51,8.34,8.34,0,0,0,1.47-.67l2.67-1.5a43.44,43.44,0,0,0,9-8.23c1.26-1.54,2.44-3.12,3.54-4.7s2.13-3.14,3-4.75c-1.13,1.7-2.77,3.74-2.69,3.23,2.06-3.11,2.84-4.57,3.46-5.25s.84-.72,1.32-1.3c2.45-5,1.57-4.91,2.62-8.22A119.34,119.34,0,0,0,172,73.77c.63-1.39,1.16-2.76,1.85-4.31s1.46-3.31,2.44-5.55l-.82.3a37.52,37.52,0,0,0,2.37-7.1A68.81,68.81,0,0,1,180,49.52c.26-.35-.4,2.45-.9,4.71,1.68-6.42,2.26-5.66,3.71-12,0,0-.14,1.31-.31,2.6s-.33,2.6-.33,2.6c1.44-4.93,2.92-12.55,2.92-9.73.66-4.58,1.83-10.8,2.31-17.57.12-1.7.18-3.41.15-5.31a23.84,23.84,0,0,0-1-6.77c-.68-1.93-1.68-3.61-3.32-4.23a5.1,5.1,0,0,0-4.61,1l.35-.61a3.65,3.65,0,0,1,.37-.56,12.86,12.86,0,0,0-2.61,2.18,11.65,11.65,0,0,0-1.44,1.62l-.74.94c-.25.32-.52.65-.68.91L172.74,11l-1,1.66c-.7,1.11-1.3,2.28-2,3.43A63.38,63.38,0,0,0,164.58,28l-.55.65s-.25.69-.61,1.71-.81,2.4-1.27,3.78c-.9,2.76-1.72,5.54-1.72,5.54-1.92,4.83-2.09,2.81-2,3.3-3.76,10.89-6,19.71-7.9,27,.23,1-.28,4.53-.82,9-.19,2.26-.57,4.73-.73,7.27-.09,1.27-.17,2.55-.26,3.82,0,.63-.08,1.26-.13,1.88s0,1.24,0,1.85l-.15,4.41c0,1.47.08,2.94.11,4.42,0,.74,0,1.48.08,2.22l.22,2.21c.18,1.47.22,3,.53,4.42a48.64,48.64,0,0,0,5.36,16.76c.74,1.23,1.57,2.42,2.38,3.6l1.42,1.58a11,11,0,0,0,1.49,1.49,25.45,25.45,0,0,0,6.77,4.33,30.37,30.37,0,0,0,15.17,2.08c10.17-1.25,19.72-5.62,28.47-10.82a196.94,196.94,0,0,0,24.37-17.75c2.25-1.9,4.84-4.3,7.49-6.93s5.33-5.56,8-8.17c-6.87,5.75-7.2,6.83-14,12.39-1.3,1-2.42,1.8-3.45,2.48s-2,1.16-2.9,1.67c-1.84,1-3.59,1.91-6,3.31,0,0,.66-.23,1.31-.51l1.3-.54a35.76,35.76,0,0,1-3.77,3c-.89.62-1.48,1-2,1.31A40.1,40.1,0,0,0,216,124.1l-.23-1.25a23.15,23.15,0,0,1-4.51,3.08,36.14,36.14,0,0,1-4.88,2.22L204.73,130c-4.92,1.93-8.12,3.07-9.77,2.79l.64.58a28.1,28.1,0,0,0-3.64,1.1c-1.77.42-3.89,1-5.77,1.38a30.63,30.63,0,0,1-4.33.4c-.8-.14-.77-.28.64-.78a19.83,19.83,0,0,1-2.23.49c-.43.07-.92.13-1.5.18l-.92.07-1-.12-.38-.83a21.37,21.37,0,0,1-6.09-1c-.85-.35-1.61-.68-2.22-1a4,4,0,0,1-1.21-.94,5.52,5.52,0,0,0,2.3.72,6.6,6.6,0,0,0,1.33,0c-4-1.45-5.77-3.16-7-3.81s-1.54-.89-2-.87a2.35,2.35,0,0,1-.7-.09,2.53,2.53,0,0,1-.49-.2,6.11,6.11,0,0,1-.58-.53,15.26,15.26,0,0,1-1.77-2.2,28.19,28.19,0,0,1-2.33-4.9l.48,0s-.54-1-1-2.13l-.86-2.28-.12-.81a13.38,13.38,0,0,1-.22-1.81l-.2-2.66c-1.32-3.27-2.09-10.46-1.48-18.31s2.13-16.23,3-22.45c1-4.85,3.29-10.92,6.21-19.75l-.81.32c.76-1.72,1.85-4.69,3.4-8.13l2.4-5.55c.89-1.92,1.8-3.92,2.77-5.87a108.08,108.08,0,0,1,5.85-10.63,41.74,41.74,0,0,1,2.68-3.72,6.89,6.89,0,0,1,1-1.08c.28-.26.59-.55.61-.38.19-1.09-.07-.18-.52-.48.32-.75.81-1.41,1.29-1.39s.52.74.49,1.11a2.35,2.35,0,0,1-.31.94c-.06-.09-.16.69-.22,1.21s-.17,1.36-.26,2.14c-.15,3.94,0,2.46.28.48s.31-4,.56-2.23c-.22,3-.53,5.18-.7,6.94s-.31,3.16-.46,4.64a68.59,68.59,0,0,1-3,14c-.77,1.41.85-4.09.95-5.75a174.4,174.4,0,0,1-5.84,21.79A204.43,204.43,0,0,1,161.87,83,95.38,95.38,0,0,1,154,95.63c-3.09,4.12-6.74,8-10.81,10.43l-1.54.79-.77.41-.63.21a6.9,6.9,0,0,1-1.27.3,11.65,11.65,0,0,1-1.32,0,9.65,9.65,0,0,1-5.2-2c-3.19-2.42-5.24-6.6-6-11a4,4,0,0,1-.3-.28,116.92,116.92,0,0,1-.8-13.47c-.05-2.4.1-4.89.23-7.42s.46-5.14.93-7.76l-.52,2.55Z"></path><path class="cls-5" d="M141.45,51.57l-1.72,5.22s.78-2.07,1.57-4.14c.4-1,.78-2.07,1-2.86l.45-1.31L142.13,50C141.81,50.81,141.45,51.57,141.45,51.57Z"></path><path class="cls-6" d="M120.32,69.25l.23-1.36.35-3.15c.16-1.9.58-4.4.94-6.92s.88-5,1.26-6.87l.68-3.1-.75,3.3c-.38,2-.94,4.66-1.35,7.34-.21,1.34-.41,2.68-.6,3.94l-.41,3.45c-.12,1-.21,1.85-.28,2.44S120.32,69.25,120.32,69.25Z"></path><path class="cls-7" d="M180.54,53c-.35,2.34-1.51,5.48-2,7.86l1.3-4.56L181,51.75Z"></path></g></g></svg> 